# xmcd
#
# Track frame offsets:
#	150
#	4120
#	25290
#	44215
#	65917
#	85680
#	93155
#	112275
#	130682
#	143162
#	161827
#	172855
#	186640
#	201805
#	218800
#
# Disc length: 2968 seconds
#
# Revision: 1
# Processed by: cddbd v1.5PL3 Copyright (c) Steve Scherf et al.
# Submitted via: CDex 1.50Beta5
#
DISCID=dd0b960f
DTITLE=BZARO - Platinum
DYEAR=1900
DGENRE=
TTITLE0=Platinum Intro
TTITLE1=Paid
TTITLE2=Don't You Ever
TTITLE3=Crazy
TTITLE4=Hard Knock (Players)
TTITLE5=Hip-Hop Controversy
TTITLE6=Real Hip-Hop
TTITLE7=Arena
TTITLE8=48bars
TTITLE9=The Shiddit'
TTITLE10=Dope Mc'S
TTITLE11=Zig Zag In The Midste
TTITLE12=Woman
TTITLE13=(Original) Paid
TTITLE14=Outtro
EXTD=INTRODUCING THE FUTURE OF HIP-HOP MUSIC
EXTT0=
EXTT1=
EXTT2=
EXTT3=
EXTT4=
EXTT5=
EXTT6=
EXTT7=
EXTT8=
EXTT9=
EXTT10=
EXTT11=
EXTT12=
EXTT13=
EXTT14=
PLAYORDER=
